<svg xmlns="http://www.w3.org/2000/svg" viewBox="0 0 1200 630" width="1200" height="630">
  <defs>
    <linearGradient id="bg" x1="0" y1="0" x2="1" y2="1">
      <stop offset="0" stop-color="#2A1A10"/>
      <stop offset="1" stop-color="#141110"/>
    </linearGradient>
    <radialGradient id="sun" cx="0.85" cy="0.15" r="0.6">
      <stop offset="0" stop-color="#E8871E" stop-opacity="0.85"/>
      <stop offset="0.5" stop-color="#E8871E" stop-opacity="0.18"/>
      <stop offset="1" stop-color="#E8871E" stop-opacity="0"/>
    </radialGradient>
  </defs>
  <rect width="1200" height="630" fill="url(#bg)"/>
  <rect width="1200" height="630" fill="url(#sun)"/>
  <g transform="translate(96 96) scale(2.2)">
    <g fill="none" stroke="#F5EFE8" stroke-width="4" stroke-linecap="round" stroke-linejoin="round">
      <path d="M22 20c-3-3 3-6 0-10"/>
      <path d="M32 20c-3-3 3-6 0-10"/>
      <path d="M42 30h3a5 5 0 0 1 0 10h-3"/>
    </g>
    <path fill="#F5EFE8" d="M12 26h30v14a3 3 0 0 1-3 3H19a7 7 0 0 1-7-7z"/>
    <circle cx="21" cy="49" r="5.5" fill="#F5EFE8"/>
    <circle cx="21" cy="49" r="2" fill="#1E1917"/>
    <circle cx="36" cy="49" r="5.5" fill="#F5EFE8"/>
    <circle cx="36" cy="49" r="2" fill="#1E1917"/>
  </g>
  <text x="96" y="340" font-family="Inter, -apple-system, 'SF Pro Display', 'Liberation Sans', 'Helvetica Neue', Arial, sans-serif" font-size="88" font-weight="700" letter-spacing="-2.5" fill="#F5EFE8">Cars <tspan fill="#F5B865">&amp;</tspan> Coffee</text>
  <text x="96" y="410" font-family="Inter, -apple-system, 'SF Pro Text', 'Liberation Sans', 'Helvetica Neue', Arial, sans-serif" font-size="36" font-weight="500" fill="#B3A79D">Find your Saturday morning.</text>
  <text x="96" y="470" font-family="Inter, -apple-system, 'SF Pro Text', 'Liberation Sans', 'Helvetica Neue', Arial, sans-serif" font-size="26" font-weight="400" fill="#8A7E74">Local car meets, from Miatas to McLarens. Inland Empire, OC and LA.</text>
  <rect x="96" y="540" width="14" height="14" rx="7" fill="#1E7A4A"/>
  <rect x="122" y="540" width="14" height="14" rx="7" fill="#E8871E"/>
  <rect x="148" y="540" width="14" height="14" rx="7" fill="#4A8FCB"/>
  <rect x="174" y="540" width="14" height="14" rx="7" fill="#7C5CC4"/>
  <text x="206" y="553" font-family="Inter, -apple-system, 'SF Pro Text', 'Liberation Sans', Arial, sans-serif" font-size="18" font-weight="500" fill="#8A7E74">Happening now · Today · This week · Recurring</text>
</svg>
